<?xml version="1.0" encoding="utf-8" standalone="yes"?>
<svg xmlns="http://www.w3.org/2000/svg" version="1.1" baseProfile="tiny" width="364.5" height="580.5" viewBox="-0.75 -0.75 13.5 21.5" fill="none" stroke="#000000" stroke-linejoin="round" stroke-linecap="round" stroke-width="0.5">
    <title>13089. bus,coach</title>
    <desc>https://www.xelify.se/blissdictionary</desc>
    <rect x="-0.75" y="-0.75" width="100%" height="100%" stroke="none" fill="#ffffff"/>
    <path
    d="M0,12
    H12

    M0,14
    a2,2 0 1,1  4,0
    a2,2 0 1,1 -4,0

    M0.585786,15.414214
    L3.414214,12.585786
    M0.585786,12.585786
    L3.414214,15.414214

    M4,14
    a2,2 0 1,1  4,0
    a2,2 0 1,1 -4,0

    M4.585786,15.414214
    L7.414213999999999,12.585786M4.585786,12.585786
    L7.414213999999999,15.414214

    M8,14
    a2,2 0 1,1  4,0
    a2,2 0 1,1 -4,0

    M8.585786,15.414214
    L11.414214,12.585786M8.585786,12.585786
    L11.414214,15.414214
    M9,11
    L11,9
    M10,10
    L12,12">
    </path>
</svg>