<?xml version="1.0" encoding="utf-8" standalone="yes"?>
<svg xmlns="http://www.w3.org/2000/svg" version="1.1" baseProfile="tiny" width="256.5" height="580.5" viewBox="-0.75 -0.75 10.5 21.5" fill="none" stroke="#000000" stroke-linejoin="round" stroke-linecap="round" stroke-width="0.5">
    <title>17462. face_Idea</title>
    <desc>https://www.xelify.se/blissdictionary</desc>
    <rect x="-0.75" y="-0.75" width="100%" height="100%" stroke="none" fill="#ffffff"/>


    <desc> M: LOCATE TO    A-1ST UPPER HEAD CIRCLE A-2ND IS LOWER HEAD CIRCLE</desc>
    <desc> A-1ST  X0 IS X RADIUS, Y0 IS Y RADIUS                        LAST TWO PARAMS:  END POINT X, Y </desc>
    <path
        d="M 0.5,  12
        a4.8, 4    0 1,1      8,0
        a4,   4    0 1,1     -8,0">
    </path>

    <desc>MOUTH - A LINE HERE</desc>
    <path
        d="M2.3,13.8
        H5.5">
    </path>


    <desc></desc>
    <path d="M2.5,11   a 0.2083,0.2083    0 1,1    0.4166,0   a0.2083,0.2083 0 1,1 -0.4166,0"></path>
    <path d="M5.5,11   a 0.2083,0.2083    0 1,1    0.4166,0   a0.2083,0.2083 0 1,1 -0.4166,0"></path>

    <desc> Exclamation Mark LINE </desc>
    <path
        d="M4.5, 2
        V8">
    </path>

    <desc> Exclamation Mark CIRCLE (SMALL) </desc>
    <path
        d="M4.35, .78
        a0.2083,0.2083    0 1,1    0.4166,0
        a0.2083,0.2083   0 1,1   -0.4166, 0"
    ></path>
</svg>