<?xml version="1.0" encoding="utf-8" standalone="yes"?>
<svg xmlns="http://www.w3.org/2000/svg" version="1.1" baseProfile="tiny" width="256.5" height="580.5" viewBox="-0.75 -0.75 9.5 21.5" fill="none" stroke="#000000" stroke-linejoin="round" stroke-linecap="round" stroke-width="0.5">
    <title>17462. face_smiley</title>
    <rect x="-0.75" y="-0.75" width="100%" height="100%" stroke="none" fill="#ffffff"/>
    <path d="M0,12a4,4 0 1,1 8,0a4,4 0 1,1 -8,0"></path>
    <path d="M2.4,13 a1.5,1.5 0 1,0 3.0,0"></path>
    <path d="M2,11a 0.2083,0.2083 0 1,1 0.4166,0 a0.2083,0.2083 0 1,1 -0.4166,0"></path>
    <path d="M5,11a 0.2083,0.2083 0 1,1 0.4166,0 a0.2083,0.2083 0 1,1 -0.4166,0"></path>
</svg>