<?xml version="1.0" encoding="utf-8" standalone="yes"?>
<svg xmlns="http://www.w3.org/2000/svg" version="1.1" baseProfile="tiny" width="688.5" height="580.5" viewBox="-0.75 -0.75 25.5 21.5" fill="none" stroke="#000000" stroke-linejoin="round" stroke-linecap="round" stroke-width="0.5">
    <title>25021. bioenergy</title>
    <desc>https://www.xelify.se/blissdictionary</desc>
    <rect x="-0.75" y="-0.75" width="100%" height="100%" stroke="none" fill="#ffffff"/>
    <path d="M0,10L8,14M8,10V14M8,10L16,14M4,12a4,4 0 1,1 8,0a4,4 0 1,1 -8,0"></path><path d="M18,10a2,2 0 1,1 4,0a2,2 0 1,1 -4,0M20,12V16M20,16a4,4 0 0,1 4,-4"></path>
</svg>