<?xml version="1.0" encoding="utf-8" standalone="yes"?>
<svg xmlns="http://www.w3.org/2000/svg" version="1.1" baseProfile="tiny" width="229.5" height="580.5" viewBox="-0.75 -0.75 8.5 21.5" fill="none" stroke="#000000" stroke-linejoin="round" stroke-linecap="round" stroke-width="0.5">
    <title>12600. avocado</title>
    <desc>https://www.xelify.se/blissdictionary</desc>
    <rect x="-0.75" y="-0.75" width="100%" height="100%" stroke="none" fill="#ffffff"/>
    <path d="M3,8a4,4 0 0,1 4,-4M3,8a5,5 0 0,0 -2,4M3,8a5,5 0 0,1 2,4M1,12a2.5,2.5 0 0,0 0,4M5,12a2.5,2.5 0 0,1 0,4M3,13a1.25,1.25 0 0,0 0,2M3,13a1.25,1.25 0 0,1 0,2M1,16H5"></path>
</svg>