<?xml version="1.0" encoding="utf-8" standalone="yes"?>
<svg xmlns="http://www.w3.org/2000/svg" version="1.1" baseProfile="tiny" width="472.5" height="580.5" viewBox="-0.75 -0.75 17.5 21.5" fill="none" stroke="#000000" stroke-linejoin="round" stroke-linecap="round" stroke-width="0.5">
    <title>13637. date_(fruit)</title>
    <desc>https://www.xelify.se/blissdictionary</desc>
    <rect x="-0.75" y="-0.75" width="100%" height="100%" stroke="none" fill="#ffffff"/>
    <path d="M2,12a4,4 0 0,1 4,-4M0,14a2,2 0 1,1 4,0a2,2 0 1,1 -4,0M2,13a1.25,1.25 0 0,0 0,2M2,13a1.25,1.25 0 0,1 0,2"></path><path d="M8,10a2,2 0 1,1 4,0M12,10a2,2 0 1,1 4,0M12,10V16"></path>
</svg>