<?xml version="1.0" encoding="utf-8" standalone="yes"?>
<svg xmlns="http://www.w3.org/2000/svg" version="1.1" baseProfile="tiny" width="688.5" height="580.5" viewBox="-0.75 -0.75 16.5 21.5" fill="none" stroke="#000000" stroke-linejoin="round" stroke-linecap="round" stroke-width="0.5">
    <title>16448. rabbit,hare</title>
    <desc>https://www.xelify.se/blissdictionary</desc>
    <rect x="-0.75" y="-0.75" width="100%" height="100%" stroke="none" fill="#ffffff"/>
<!--    <path d="M0,12H8M0,16L2,12M2,12L4,16M4,16L6,12M6,12L8,16"></path> animal-->
<!--    <path d="M10,12  L12,16  M12,16  L14,12  M10,12  H14  M14,12  L16,16  M16,16  L18,12  M14,12  H18"></path> orginal teeth-->
    <path d="M0,12        L2,16  M2,16    L4,12  M0,12   H4  M4,12    L6,16   M6,16   L8,12   M4,12    H8"></path>
    <path d="M10,10  a2,2 0 1,1 4,0  q0,3 -4,6"></path>
</svg>