<?xml version="1.0" encoding="utf-8" standalone="yes"?>
<svg xmlns="http://www.w3.org/2000/svg" version="1.1" baseProfile="tiny" width="580.5" height="580.5" viewBox="-0.75 -0.75 21.5 21.5" fill="none" stroke="#000000" stroke-linejoin="round" stroke-linecap="round" stroke-width="0.5">
    <title>22123. cupcake,fancy_cake,pastry</title>
    <desc>https://www.xelify.se/blissdictionary</desc>
    <rect x="-0.75" y="-0.75" width="100%" height="100%" stroke="none" fill="#ffffff"/>
    <path d="M1,12a2.5,2.5 0 0,0 0,4M1,12H5M1,16H5M5,12a2.5,2.5 0 0,1 0,4"></path><path d="M8,16L12,8M8,16H12M8,12a2,2 0 1,1 4,0a2,2 0 1,1 -4,0"></path><path d="M14,10L16,8M16,8L18,10M16,8V16"></path><path d="M20,10V13"></path><path stroke-width="0.4166" d="M19.7917,14a0.2083,0.2083 0 1,1 0.4166,0a0.2083,0.2083 0 1,1 -0.4166,0"></path><path d=""></path>
</svg>