<?xml version="1.0" encoding="utf-8" standalone="yes"?>
<svg xmlns="http://www.w3.org/2000/svg" version="1.1" baseProfile="tiny" width="634.5" height="580.5" viewBox="-0.75 -0.75 23.5 21.5" fill="none" stroke="#000000" stroke-linejoin="round" stroke-linecap="round" stroke-width="0.5">
    <title>16718. sandwich</title>
    <desc>https://www.xelify.se/blissdictionary</desc>
    <rect x="-0.75" y="-0.75" width="100%" height="100%" stroke="none" fill="#ffffff"/>
    <path d="M0,12a2,2 0 1,1 4,0a2,2 0 1,1 -4,0M0,16H4"></path><path d="M6,8V16"></path><path stroke-width="0.4166" d="M7.7917,12a0.2083,0.2083 0 1,1 0.4166,0a0.2083,0.2083 0 1,1 -0.4166,0"></path><path d="M10,8V16"></path><path d="M13,12a2.5,2.5 0 0,0 0,4M13,12H21M13,16H21M21,12a2.5,2.5 0 0,1 0,4"></path>
</svg>