<?xml version="1.0" encoding="utf-8" standalone="yes"?>
<svg xmlns="http://www.w3.org/2000/svg" version="1.1" baseProfile="tiny" width="364.5" height="580.5" viewBox="-0.75 -0.75 13.5 21.5" fill="none" stroke="#000000" stroke-linejoin="round" stroke-linecap="round" stroke-width="0.5">
    <title>26335. vegetarian_(food)</title>
    <desc>https://www.xelify.se/blissdictionary</desc>
    <rect x="-0.75" y="-0.75" width="100%" height="100%" stroke="none" fill="#ffffff"/>
    <path d="M0,12a2,2 0 1,1 4,0a2,2 0 1,1 -4,0M0,16H4"></path><path d="M1,4L2,6M2,6L3,4"></path><path d="M6,10a2,2 0 1,1 4,0a2,2 0 1,1 -4,0M8,12V16M8,16a4,4 0 0,1 4,-4"></path>
</svg>