<?xml version="1.0" encoding="utf-8" standalone="yes"?>
<svg xmlns="http://www.w3.org/2000/svg" version="1.1" baseProfile="tiny" width="580.5" height="580.5" viewBox="-0.75 -0.75 21.5 21.5" fill="none" stroke="#000000" stroke-linejoin="round" stroke-linecap="round" stroke-width="0.5">
    <title>17243. square_(description)</title>
    <desc>https://www.xelify.se/blissdictionary</desc>
    <rect x="-0.75" y="-0.75" width="100%" height="100%" stroke="none" fill="#ffffff"/>
    <path d="M0,12a2,2 0 1,1 4,0a2,2 0 1,1 -4,0"></path><path stroke-width="0.4166" d="M1.7917,12a0.2083,0.2083 0 1,1 0.4166,0a0.2083,0.2083 0 1,1 -0.4166,0"></path><path d=""></path><path d="M1,4L2,6M2,6L3,4"></path><path d="M6,10H10M6,14H10M6,10V14M10,10V14"></path><path d="M12,8H20M12,16H20M12,8V16M20,8V16"></path>
</svg>