<?xml version="1.0" encoding="utf-8" standalone="yes"?>
<svg xmlns="http://www.w3.org/2000/svg" version="1.1" baseProfile="tiny" width="580.5" height="580.5" viewBox="-0.75 -0.75 21.5 21.5" fill="none" stroke="#000000" stroke-linejoin="round" stroke-linecap="round" stroke-width="0.5">
    <title>15178. laugh-(to)</title>
    <desc>https://www.xelify.se/blissdictionary</desc>
    <rect x="-0.75" y="-0.75" width="100%" height="100%" stroke="none" fill="#ffffff"/>
    <path d="M0,10a2,2 0 1,1 4,0a2,2 0 1,1 4,0q0,3 -4,6q-4,-3 -4,-6"></path><path d="M3,6L4,4M4,4L5,6"></path><path d="M10,10L12,8M12,8L14,10M12,8V16"></path><path d="M16,12a2,2 0 1,1 4,0a2,2 0 1,1 -4,0"></path>
</svg>