<?xml version="1.0" encoding="utf-8" standalone="yes"?>
<svg xmlns="http://www.w3.org/2000/svg" version="1.1" baseProfile="tiny" width="472.5" height="580.5" viewBox="-0.75 -0.75 17.5 21.5" fill="none" stroke="#000000" stroke-linejoin="round" stroke-linecap="round" stroke-width="0.5">
    <title>17725. throw-(to)</title>
    <desc>https://www.xelify.se/blissdictionary</desc>
    <rect x="-0.75" y="-0.75" width="100%" height="100%" stroke="none" fill="#ffffff"/>
    <path d="M0,12L4,16M4,8V16"></path><path d="M1,6L2,4M2,4L3,6"></path><path d="M6,12a4,4 0 1,0 8,0M8,10L10,8M10,8L12,10M10,8V16"></path><path d="M16,10V13"></path><path stroke-width="0.4166" d="M15.7917,14a0.2083,0.2083 0 1,1 0.4166,0a0.2083,0.2083 0 1,1 -0.4166,0"></path><path d=""></path>
</svg>