<?xml version="1.0" encoding="utf-8" standalone="yes"?>
<svg xmlns="http://www.w3.org/2000/svg" version="1.1" baseProfile="tiny" width="553.5" height="580.5" viewBox="-0.75 -0.75 20.5 21.5" fill="none" stroke="#000000" stroke-linejoin="round" stroke-linecap="round" stroke-width="0.5">
    <title>24311. tie,bind_together,lash-(to)</title>
    <desc>https://www.xelify.se/blissdictionary</desc>
    <rect x="-0.75" y="-0.75" width="100%" height="100%" stroke="none" fill="#ffffff"/>
    <path d="M0,12a2,2 0 1,1 4,0a2,2 0 1,1 -4,0M2,12a2,2 0 1,1 4,0a2,2 0 1,1 -4,0"></path><path d="M2,6L3,4M3,4L4,6"></path><path d="M8,8V16"></path><path d="M7,4H9M7,6H9M7,4V6M9,4V6"></path><path d="M10,8V16M12,12H16M14,10V14M18,8V16"></path>
</svg>