<?xml version="1.0" encoding="utf-8" standalone="yes"?>
<svg xmlns="http://www.w3.org/2000/svg" version="1.1" baseProfile="tiny" width="364.5" height="580.5" viewBox="-0.75 -0.75 13.5 21.5" fill="none" stroke="#000000" stroke-linejoin="round" stroke-linecap="round" stroke-width="0.5">
    <title>26003. fat,thick</title>
    <desc>https://www.xelify.se/blissdictionary</desc>
    <rect x="-0.75" y="-0.75" width="100%" height="100%" stroke="none" fill="#ffffff"/>
    <path d="M0,10L2,12M0,14L2,12M2,8V16"></path><path stroke-width="0.4166" d="M3.7917,16a0.2083,0.2083 0 1,1 0.4166,0a0.2083,0.2083 0 1,1 -0.4166,0"></path><path d=""></path><path stroke-width="0.4166" d="M5.7917,16a0.2083,0.2083 0 1,1 0.4166,0a0.2083,0.2083 0 1,1 -0.4166,0"></path><path d=""></path><path stroke-width="0.4166" d="M7.7917,16a0.2083,0.2083 0 1,1 0.4166,0a0.2083,0.2083 0 1,1 -0.4166,0"></path><path d="M10,8V16M10,12L12,10M10,12L12,14"></path><path d="M5,4L6,6M6,6L7,4"></path>
</svg>