<?xml version="1.0" encoding="utf-8" standalone="yes"?>
<svg xmlns="http://www.w3.org/2000/svg" version="1.1" baseProfile="tiny" width="688.5" height="580.5" viewBox="-0.75 -0.75 25.5 21.5" fill="none" stroke="#000000" stroke-linejoin="round" stroke-linecap="round" stroke-width="0.5">
    <title>26232. rotten,decomposed</title>
    <desc>https://www.xelify.se/blissdictionary</desc>
    <rect x="-0.75" y="-0.75" width="100%" height="100%" stroke="none" fill="#ffffff"/>
    <path d="M0,12a4,4 0 1,1 8,0a4,4 0 1,1 -8,0M4,8V16M0,12a2.5,2.5 0 0,1 4,0M4,12a2.5,2.5 0 0,0 4,0"></path><path d="M3,4L4,6M4,6L5,4"></path><path d="M10,12a2,2 0 1,1 4,0a2,2 0 1,1 -4,0M12,10V14"></path><path d="M11,4H13M11,6H13M11,4V6M13,4V6"></path><path d="M16,16L24,8"></path>
</svg>