<?xml version="1.0" encoding="utf-8" standalone="yes"?>
<svg xmlns="http://www.w3.org/2000/svg" version="1.1" baseProfile="tiny" width="283.5" height="580.5" viewBox="-0.75 -0.75 10.5 21.5" fill="none" stroke="#000000" stroke-linejoin="round" stroke-linecap="round" stroke-width="0.5">
    <title>14661. hair_(head)</title>
    <desc>https://www.xelify.se/blissdictionary</desc>
    <rect x="-0.75" y="-0.75" width="100%" height="100%" stroke="none" fill="#ffffff"/>
    <path d="M0,12a4,4 0 1,1 8,0a4,4 0 1,1 -8,0M4,10V14M2,14H6M2,6a1.25,1.25 0 0,0 0,2M4,6a1.25,1.25 0 0,0 0,2M6,6a1.25,1.25 0 0,0 0,2M7,6L9,4M7,6L9,8"></path>
</svg>